
<svg width="22px" height="20px" viewBox="0 0 22 20" version="1.1" xmlns="http://www.w3.org/2000/svg" xmlns:xlink="http://www.w3.org/1999/xlink">
    <!-- Generator: Sketch 49.3 (51167) - http://www.bohemiancoding.com/sketch -->
    <desc>Created with Sketch.</desc>
    <defs></defs>
    <g id="Welcome" stroke="none" stroke-width="1" fill="none" fill-rule="evenodd">
        <g id="Desktop-HD" transform="translate(-239.000000, -1662.000000)" fill="#7E848C">
            <g id="card" transform="translate(35.000000, 1277.000000)">
                <path d="M214.999941,405 L213.404992,403.561337 C207.740174,398.471523 204.000294,395.114643 204.000294,390.994837 C203.967845,387.71643 206.62316,385.032561 209.931854,385.000409 C209.971452,384.999864 210.010501,384.999864 210.0501,385.000409 C212.358376,387.709345 216.445294,388.051028 219.179257,385.763881 C219.456998,385.531188 219.714939,385.275607 219.949782,385.000409 C223.258476,384.967712 225.967139,387.599266 225.999588,390.877673 C226.000137,390.916364 226.000137,390.9556 225.999588,390.994837 C225.999588,395.114643 222.259708,398.471523 216.59489,403.572236 L214.999941,405 Z" id="fav"></path>
            </g>
        </g>
    </g>
</svg>