<?xml version="1.0" encoding="utf-8"?>
<!-- Generator: Adobe Illustrator 21.0.0, SVG Export Plug-In . SVG Version: 6.00 Build 0)  -->
<svg version="1.1" id="Layer_1_xA0_Image_1_" xmlns="http://www.w3.org/2000/svg" xmlns:xlink="http://www.w3.org/1999/xlink"
	 x="0px" y="0px" viewBox="0 0 401 87" style="enable-background:new 0 0 401 87;" xml:space="preserve">
<style type="text/css">
	.st0{fill:#5A6B74;}
	.st1{fill:#D8F0F6;}
	.st2{fill:#7AD1ED;}
	.st3{fill:#CFECF6;}
	.st4{fill:none;stroke:#FFFFFF;stroke-miterlimit:10;}
	.st5{fill:#AEDBC5;}
	.st6{fill:#4EBC88;}
</style>
<g>
	<path class="st0" d="M123.7,33.3c-1.1-2.6-2.5-3.9-4.9-3.9c-3.2,0-4.9,2.3-4.9,4.9c0,0.7,0.2,1.4,0.5,2.1L128,68.9
		c3.7,0,6.9,0,10.4,0L123.7,33.3z"/>
	<path class="st0" d="M169.2,1.5c-2.1,0-3.5,1.1-4.7,3.9l-25.7,64.1L127,41c-3.5,0-6.7,0-10.4,0l16.8,40.1c0.8,2,2.5,3.7,5.1,3.7
		c2.7,0,4.1-1.4,5-3.7l29.8-73.1c0.2-0.7,0.5-1.4,0.5-2C173.9,3.6,172.1,1.5,169.2,1.5z"/>
	<path class="st0" d="M221.7,56.9c-0.1,1.9-2.1,3.7-4,3.7h-37c0.8,9.9,8.1,15.8,18.4,15.8c5.3,0,9.2-1.1,12.9-3.2
		c0.8-0.5,1.8-0.7,2.6-0.7c1.2,0,2.2,0.5,3.2,1.5c0.5,0.6,0.7,1.3,0.7,2.1c0,1.3-0.5,2.6-1.4,3.2c-6,4.2-12.1,5.9-18.6,5.9
		c-17.1,0-28.2-10.9-28.2-27.5c0-15.3,9.8-27.5,27.1-27.5c13.6,0,24.5,9.6,24.5,24.1C221.9,55.2,221.9,56,221.7,56.9z M196.9,39
		c-9.6,0-15.7,6-16.7,14h31.9C211.7,44.3,206.1,39,196.9,39z"/>
	<path class="st0" d="M244.6,80.1c0,2.6-2.1,4.7-4.7,4.7s-4.7-2.1-4.7-4.7V35.4c0-2.6,2.1-4.7,4.7-4.7s4.7,2.1,4.7,4.7v2.1
		c2.7-4,6.6-7.1,13.2-7.1c1.9,0,3.4,0.4,4.8,0.7c1.9,0.6,3.4,1.8,3.4,3.7c0,0.5-0.1,0.9-0.2,1.5c-0.7,2.3-2.2,3.3-4.7,3.3
		c-0.7,0-1.5-0.1-2.3-0.2c-1.1-0.2-2.1-0.2-3.2-0.2c-6.1,0-9,3.6-11,7.5V80.1z"/>
	<path class="st0" d="M272.3,73.7c0.9-1.2,2.1-1.6,3.3-1.6c0.9,0,1.9,0.2,2.7,0.8c4,2.7,8,4.1,12.2,4.1c4.9,0,9.4-2.5,9.4-7.3
		c0-10.6-28.4-5.4-28.4-24.7c0-9.2,7.5-14.9,17.9-14.9c6.7,0,11.1,1.8,15,4c1.2,0.7,1.9,1.9,1.9,3.3c0,0.7-0.2,1.5-0.7,2.2
		c-0.8,1.3-2.1,1.9-3.5,1.9c-0.8,0-1.5-0.1-2.3-0.6c-2.9-1.5-5.8-2.6-9.8-2.6c-5.3,0-8.4,3-8.4,6.6c0,11.1,28.4,5.9,28.4,24.3
		c0,11.1-9.8,15.9-20.4,15.9c-7,0-11.9-2.1-16.5-5.6c-0.9-0.7-1.5-2-1.5-3.3C271.4,75.3,271.7,74.4,272.3,73.7z"/>
	<path class="st0" d="M332.3,65.7c0,7.1,1.8,10.4,6.2,10.4c2,0,4-0.6,5.3-0.6c1.5,0,3.9,1.1,3.9,3.7c0,5.3-6.8,5.5-11,5.5
		c-8.7,0-13.7-4.7-13.7-14.9V6.5c0-2.5,2-4.4,4.7-4.4s4.7,2,4.7,4.4V65.7z"/>
	<path class="st0" d="M372.8,51.8c4.1,0,9.6,0.8,13.1,3.4c0-9.8-1.5-16.6-11.9-16.6c-3.9,0-6.9,0.7-10.5,2.1
		c-0.6,0.2-1.2,0.4-1.8,0.4c-1.5,0-2.9-0.8-3.6-2.3c-0.2-0.6-0.4-1.1-0.4-1.6c0-1.6,0.9-3.2,2.3-3.7c5.4-2.2,10.2-3.2,14.5-3.2
		c15,0,20.2,7.8,20.2,21.5v29c0,2.2-1.9,4.1-4.4,4.1c-2.6,0-4.4-1.9-4.4-4.1v-3.5c-3.2,4-8.2,7.6-16.8,7.6
		c-9.6,0-16.1-6.1-16.1-16.3C352.9,57.8,361.4,51.8,372.8,51.8z M385.9,62.9c-3.3-2.3-7.3-3.5-11.8-3.5c-5.6,0-11.2,2.6-11.2,8.7
		c0,5,3.4,8.3,9.5,8.3c6.9,0,10.9-3.6,13.6-6.8V62.9z"/>
</g>
<path class="st1" d="M98.5,56.2v2.2c0,6.3-5.2,11.5-11.5,11.5H45.7c-6.3,0-11.5-5.2-11.5-11.5v-2.7"/>
<path class="st2" d="M34.2,55.7V17.1c0-6.3,5.2-11.5,11.5-11.5H87c6.3,0,11.5,5.2,11.5,11.5v39.2"/>
<circle class="st3" cx="50.5" cy="15.4" r="1.6"/>
<circle class="st3" cx="82.4" cy="15.4" r="1.6"/>
<path class="st4" d="M50.5,15.4c0,6.4,7.1,11.5,16,11.5"/>
<path class="st4" d="M82.4,15.4c0,6.4-7.1,11.5-16,11.5"/>
<path class="st5" d="M86.5,67.1v2.2c0,6.3-5.2,11.5-11.5,11.5H33.6c-6.3,0-11.5-5.2-11.5-11.5v-2.7"/>
<path class="st6" d="M22.2,66.5V27.9c0-6.3,5.2-11.5,11.5-11.5H75c6.3,0,11.5,5.2,11.5,11.5v39.2"/>
<circle class="st3" cx="38.4" cy="26.2" r="1.6"/>
<circle class="st3" cx="70.3" cy="26.2" r="1.6"/>
<path class="st4" d="M38.4,26.2c0,6.4,7.1,11.5,16,11.5"/>
<path class="st4" d="M70.3,26.2c0,6.4-7.1,11.5-16,11.5"/>
</svg>
