
<svg width="132px" height="133px" viewBox="0 0 132 133" version="1.1" xmlns="http://www.w3.org/2000/svg" xmlns:xlink="http://www.w3.org/1999/xlink">
    <!-- Generator: Sketch 49.3 (51167) - http://www.bohemiancoding.com/sketch -->
    <desc>Created with Sketch.</desc>
    <defs></defs>
    <g id="Welcome" stroke="none" stroke-width="1" fill="none" fill-rule="evenodd">
        <g id="Desktop-HD" transform="translate(-697.000000, -892.000000)" fill-rule="nonzero">
            <g id="ecommerce" transform="translate(697.000000, 892.000000)">
                <polygon id="Shape" fill="#FFFFFF" points="66.2882 128.84375 39.3118 128.84375 41.8 125.317172 41.8 116.375 63.8 116.375 63.8 125.317172"></polygon>
                <rect id="Rectangle-path" fill="#FFFFFF" x="4.4" y="99.75" width="96.8" height="12.46875"></rect>
                <path d="M101.2,95.59375 L4.4,95.59375 L4.4,45.71875 L11,45.71875 L11,83.125 L68.2,83.125 L68.2,45.71875 L101.2,45.71875 L101.2,54.03125 L81.4,54.03125 C77.7612,54.03125 74.8,56.8284063 74.8,60.265625 L74.8,85.203125 C74.8,88.6403437 77.7612,91.4375 81.4,91.4375 L101.2,91.4375 L101.2,95.59375 Z" id="Shape" fill="#FFFFFF"></path>
                <path d="M129.8,60.265625 L129.8,85.203125 C129.8,87.4994531 127.831,89.359375 125.4,89.359375 L81.4,89.359375 C78.969,89.359375 77,87.4994531 77,85.203125 L77,60.265625 C77,57.9692969 78.969,56.109375 81.4,56.109375 L125.4,56.109375 C127.831,56.109375 129.8,57.9692969 129.8,60.265625 Z" id="Shape" fill="#53B7E8"></path>
                <rect id="Rectangle-path" fill="#DCDDDE" x="52.8" y="99.75" width="50.6" height="12.46875"></rect>
                <path d="M70.4,130.921875 L66,124.6875 L66,114.296875 L52.8,114.296875 L52.8,116.375 L41.8,116.375 L41.8,118.453125 L48.4,118.453125 C50.831,118.453125 52.8,120.313047 52.8,122.609375 L52.8,130.921875 L70.4,130.921875 Z" id="Shape" fill="#DCDDDE"></path>
                <rect id="Rectangle-path" fill="#FFD768" x="15.4" y="24.9375" width="48.4" height="54.03125"></rect>
                <path d="M53,42.0930755 L53,63.0238309 C53,64.1771156 53.9878494,65.1169065 55.20011,65.1169065 C56.4145707,65.1169065 57.4,64.1771156 57.4,63.0238309 L57.4,42.0930755 C57.4,40.9397909 56.4145707,40 55.20011,40 C53.9876294,40 53,40.9397909 53,42.0930755 Z" id="Shape" fill="#0C3847"></path>
                <path d="M55.20011,69 C53.9878494,69 53,69.9397909 53,71.0930755 C53,72.2463602 53.9878494,73.1861511 55.20011,73.1861511 C56.4145707,73.1861511 57.4,72.2463602 57.4,71.0930755 C57.4,69.9397909 56.4145707,69 55.20011,69 Z" id="Shape" fill="#0C3847"></path>
                <rect id="Rectangle-path" fill="#0C3847" x="118.8" y="103.90625" width="4.4" height="4.15625"></rect>
                <rect id="Rectangle-path" fill="#0C3847" x="118.8" y="95.59375" width="4.4" height="4.15625"></rect>
                <rect id="Rectangle-path" fill="#0C3847" x="110" y="112.21875" width="4.4" height="4.15625"></rect>
                <rect id="Rectangle-path" fill="#0C3847" x="118.8" y="112.21875" width="4.4" height="4.15625"></rect>
                <rect id="Rectangle-path" fill="#0C3847" x="19.8" y="87.28125" width="4.4" height="4.15625"></rect>
                <rect id="Rectangle-path" fill="#0C3847" x="28.6" y="87.28125" width="4.4" height="4.15625"></rect>
                <rect id="Rectangle-path" fill="#0C3847" x="37.4" y="87.28125" width="4.4" height="4.15625"></rect>
                <rect id="Rectangle-path" fill="#0C3847" x="46.2" y="87.28125" width="4.4" height="4.15625"></rect>
                <rect id="Rectangle-path" fill="#0C3847" x="55" y="87.28125" width="4.4" height="4.15625"></rect>
                <rect id="Rectangle-path" fill="#0C3847" x="50.6" y="103.90625" width="4.4" height="4.15625"></rect>
                <path d="M125.4,54.03125 L105.6,54.03125 L105.6,41.5625 L68.2,41.5625 L68.2,20.78125 L52.8,20.78125 L52.8,10.390625 L52.602,10.390625 C51.5482,4.50329687 46.1274,0 39.6,0 C33.0726,0 27.6518,4.50329687 26.598,10.390625 L26.4,10.390625 L26.4,20.78125 L11,20.78125 L11,41.5625 L0,41.5625 L0,116.375 L37.4,116.375 L37.4,124.057828 L31.0882,133 L74.5096,133 L68.2,124.057828 L68.2,116.375 L105.6,116.375 L105.6,91.4375 L125.4,91.4375 C129.0388,91.4375 132,88.6403437 132,85.203125 L132,60.265625 C132,56.8284063 129.0388,54.03125 125.4,54.03125 Z M127.6,60.265625 L127.6,62.34375 L79.2,62.34375 L79.2,60.265625 C79.2,59.1185 80.1878,58.1875 81.4,58.1875 L125.4,58.1875 C126.6122,58.1875 127.6,59.1185 127.6,60.265625 Z M30.8,12.46875 C30.8,7.88440625 34.7468,4.15625 39.6,4.15625 C44.4532,4.15625 48.4,7.88440625 48.4,12.46875 L48.4,20.78125 L30.8,20.78125 L30.8,12.46875 Z M15.4,24.9375 L26.4,24.9375 L26.4,35.328125 L30.8,35.328125 L30.8,24.9375 L48.4,24.9375 L48.4,35.328125 L52.8,35.328125 L52.8,24.9375 L63.8,24.9375 L63.8,78.96875 L15.4,78.96875 L15.4,24.9375 Z M66.2882,128.84375 L39.3118,128.84375 L41.8,125.317172 L41.8,116.375 L63.8,116.375 L63.8,125.317172 L66.2882,128.84375 Z M101.2,112.21875 L4.4,112.21875 L4.4,99.75 L101.2,99.75 L101.2,112.21875 Z M101.2,95.59375 L4.4,95.59375 L4.4,45.71875 L11,45.71875 L11,83.125 L68.2,83.125 L68.2,45.71875 L101.2,45.71875 L101.2,54.03125 L81.4,54.03125 C77.7612,54.03125 74.8,56.8284063 74.8,60.265625 L74.8,85.203125 C74.8,88.6403437 77.7612,91.4375 81.4,91.4375 L101.2,91.4375 L101.2,95.59375 Z M125.4,87.28125 L81.4,87.28125 C80.1878,87.28125 79.2,86.35025 79.2,85.203125 L79.2,70.65625 L127.6,70.65625 L127.6,85.203125 C127.6,86.35025 126.6122,87.28125 125.4,87.28125 Z" id="Shape" fill="#0C3847"></path>
                <rect id="Rectangle-path" fill="#FFFFFF" x="83.6" y="78.96875" width="17.6" height="4.15625"></rect>
                <rect id="Rectangle-path" fill="#FFFFFF" x="105.6" y="78.96875" width="8.8" height="4.15625"></rect>
            </g>
        </g>
    </g>
</svg>