<?xml version="1.0" encoding="UTF-8"?>
<svg width="502px" height="518px" viewBox="0 0 502 518" version="1.1" xmlns="http://www.w3.org/2000/svg" xmlns:xlink="http://www.w3.org/1999/xlink">
    <!-- Generator: Sketch 50.2 (55047) - http://www.bohemiancoding.com/sketch -->
    <title>Untitled 2</title>
    <desc>Created with Sketch.</desc>
    <defs></defs>
    <g id="Page-1" stroke="none" stroke-width="1" fill="none" fill-rule="evenodd">
        <g id="personalized" transform="translate(0.000000, 8.000000)" fill-rule="nonzero">
            <path d="M480.653,78.367 L20.898,78.367 C9.404,78.367 0,87.771 0,99.265 L0,410.645 C0,422.139 9.404,431.543 20.898,431.543 L480.653,431.543 C492.147,431.543 501.551,422.139 501.551,410.645 L501.551,99.265 C501.551,87.771 492.147,78.367 480.653,78.367 Z" id="Shape" fill="#0C3847"></path>
            <rect id="Rectangle-path" fill="#FFFFFF" x="31.347" y="109.714" width="438.857" height="289.437"></rect>
            <rect id="Rectangle-path" stroke="#0C3847" stroke-width="16" fill="#CDD6E0" x="154.645" y="431.543" width="191.216" height="56.425"></rect>
            <rect id="Rectangle-path" stroke="#0C3847" stroke-width="16" fill="#F2F2F2" x="97.176" y="487.967" width="307.2" height="13.584"></rect>
            <path d="M432.588,117.029 L432.588,382.433 C432.588,391.837 425.274,399.151 415.87,399.151 L84.637,399.151 C75.233,399.151 67.919,391.837 67.919,382.433 L67.919,117.029 L432.588,117.029 Z" id="Shape" fill="#F2F2F2"></path>
            <path d="M411.69,0 L89.861,0 C78.367,0 68.963,9.404 68.963,20.898 L68.963,75.233 L433.632,75.233 L433.632,20.898 C432.588,9.404 423.184,0 411.69,0 Z" id="Shape" fill="#FFD768"></path>
            <polygon id="Shape" fill="#0C3847" points="324.963 273.763 344.816 344.816 362.58 327.053 379.298 344.816 394.971 329.143 378.253 311.38 394.971 293.616"></polygon>
            <circle id="Oval" fill="#F8B64C" cx="205.845" cy="37.616" r="12.539"></circle>
            <circle id="Oval" fill="#67C18C" cx="157.78" cy="37.616" r="12.539"></circle>
            <circle id="Oval" fill="#F8B64C" cx="109.714" cy="37.616" r="12.539"></circle>
            <path d="M432.588,125.388 L432.588,174.498 C426.319,179.722 417.959,181.812 409.6,181.812 C387.657,181.812 369.894,164.049 369.894,142.106 C369.894,164.049 352.131,181.812 330.188,181.812 C308.245,181.812 290.482,164.049 290.482,142.106 C290.482,164.049 272.719,181.812 250.776,181.812 C228.833,181.812 211.07,164.049 211.07,142.106 C211.07,164.049 193.307,181.812 171.364,181.812 C149.421,181.812 131.658,164.049 131.658,142.106 C131.658,164.049 113.895,181.812 91.952,181.812 C83.593,181.812 75.234,178.677 68.964,174.498 L68.964,125.388 C68.964,125.388 432.588,125.388 432.588,125.388 Z" id="Shape" fill="#E4EAEF"></path>
            <polygon id="Shape" fill="#53B7E8" points="131.657 117.029 52.245 117.029 68.963 75.233 141.061 75.233"></polygon>
            <polygon id="Shape" fill="#CDD6E0" points="211.069 117.029 131.657 117.029 141.061 75.233 214.204 75.233"></polygon>
            <polygon id="Shape" fill="#53B7E8" points="290.482 117.029 211.069 117.029 214.204 75.233 287.347 75.233"></polygon>
            <polygon id="Shape" fill="#CDD6E0" points="369.894 117.029 290.482 117.029 287.347 75.233 360.49 75.233"></polygon>
            <polygon id="Shape" stroke="#979797" fill="#53B7E8" points="449.306 117.029 369.894 117.029 360.49 75.233 432.588 75.233"></polygon>
            <g id="Group" transform="translate(131.000000, 117.000000)" fill="#ACB3BA">
                <path d="M0.657,17.792 C0.657,39.735 18.42,57.498 40.363,57.498 C62.306,57.498 80.069,39.735 80.069,17.792 L80.069,0.029 L0.657,0.029 L0.657,17.792 Z" id="Shape"></path>
                <path d="M159.482,0.029 L159.482,17.792 C159.482,39.735 177.245,57.498 199.188,57.498 C221.131,57.498 238.894,39.735 238.894,17.792 L238.894,0.029 C238.894,0.029 159.482,0.029 159.482,0.029 Z" id="Shape"></path>
            </g>
            <g id="Group" transform="translate(52.000000, 117.000000)" fill="#3C8BB2">
                <path d="M0.245,17.792 C0.245,39.735 18.008,57.498 39.951,57.498 C61.894,57.498 79.657,39.735 79.657,17.792 L79.657,0.029 L0.245,0.029 L0.245,17.792 Z" id="Shape"></path>
                <path d="M159.069,17.792 C159.069,39.735 176.832,57.498 198.775,57.498 C220.718,57.498 238.481,39.735 238.481,17.792 L238.481,0.029 L159.069,0.029 L159.069,17.792 Z" id="Shape"></path>
                <path d="M317.894,0.029 L317.894,17.792 C317.894,39.735 335.657,57.498 357.6,57.498 C379.543,57.498 397.306,39.735 397.306,17.792 L397.306,0.029 C397.306,0.029 317.894,0.029 317.894,0.029 Z" id="Shape" stroke="#979797"></path>
            </g>
            <ellipse id="Oval" fill="#67C18C" cx="250.776" cy="287.347" rx="61.649" ry="62.694"></ellipse>
            <g id="Group" transform="translate(208.000000, 248.000000)" fill="#FFFFFF">
                <path d="M32.327,58.155 L30.237,50.841 L78.302,50.841 L78.302,14.27 L20.833,14.27 L17.698,0.686 L0.98,0.686 L0.98,6.955 L13.519,6.955 L28.148,64.424 L80.393,64.424 L80.393,58.155 L32.327,58.155 Z M72.033,19.494 L72.033,43.527 L29.192,43.527 L22.923,19.494 L72.033,19.494 Z" id="Shape"></path>
                <circle id="Oval" cx="41.731" cy="75.918" r="7.314"></circle>
                <circle id="Oval" cx="68.898" cy="75.918" r="7.314"></circle>
            </g>
        </g>
    </g>
</svg>