<?xml version="1.0" encoding="UTF-8"?>
<svg width="512px" height="512px" viewBox="0 0 512 512" version="1.1" xmlns="http://www.w3.org/2000/svg" xmlns:xlink="http://www.w3.org/1999/xlink">
    <!-- Generator: Sketch 50.2 (55047) - http://www.bohemiancoding.com/sketch -->
    <title>Untitled 2</title>
    <desc>Created with Sketch.</desc>
    <defs></defs>
    <g id="Page-1" stroke="none" stroke-width="1" fill="none" fill-rule="evenodd">
        <g id="shop" fill-rule="nonzero">
            <polygon id="Shape" fill="#FFFFFF" points="475.04 176.86 36.02 176.46 36 177 36 502 476 502 476 177"></polygon>
            <path d="M96,290 C96,301.784 96,490.216 96,502 L216,502 C216,490.216 216,301.784 216,290 L96,290 Z" id="Shape" fill="#53B7E8"></path>
            <path d="M436,30 L436,50 C355.067,50 146.492,50 76,50 L76,30 C76,18.95 84.95,10 96,10 L416,10 C427.05,10 436,18.95 436,30 Z" id="Shape" fill="#444B75"></path>
            <circle id="Oval" fill="#67C18C" cx="126" cy="30" r="7"></circle>
            <circle id="Oval" fill="#E03229" cx="106" cy="30" r="7"></circle>
            <circle id="Oval" fill="#F8B64C" cx="146" cy="30" r="7"></circle>
            <rect id="Rectangle-path" fill="#53B7E8" x="296" y="290" width="120" height="106"></rect>
            <g id="Group" transform="translate(96.000000, 50.000000)" fill="#67C18C">
                <path d="M340,0 L280,0 L320,120 L320,140 C320,162.09 340.91,180 363,180 C385.092,180 406,162.092 406,140 L406,120 L340,0 Z" id="Shape"></path>
                <path d="M160,0 C160,20.629 160,122.434 160,140 C160,162.09 177.91,180 200,180 C222.09,180 240,162.09 240,140 L240,120 L220,0 L160,0 Z" id="Shape"></path>
                <path d="M0,120 L0,140 C0,162.09 17.91,180 40,180 C62.09,180 80,162.09 80,140 L80,120 L100,0 L40,0 L0,120 Z" id="Shape"></path>
            </g>
            <g id="Group" transform="translate(10.000000, 50.000000)" fill="#FFD768">
                <path d="M366,0 L306,0 L326,120 L326,140 C326,162.09 343.91,180 366,180 C388.09,180 406,162.09 406,140 L406,120 L366,0 Z" id="Shape"></path>
                <path d="M166,120 L166,140 C166,162.09 183.91,180 206,180 C228.09,180 246,162.09 246,140 L246,120 L246,0 L186,0 L166,120 Z" id="Shape"></path>
                <path d="M0,120 L0,140 C0,162.044 20.88,180 43,180 C65.09,180 86,162.09 86,140 L86,120 L126,0 L66,0 L0,120 Z" id="Shape"></path>
            </g>
            <path d="M416,426 C410.48,426 406,430.48 406,436 C406,441.52 410.48,446 416,446 C421.52,446 426,441.52 426,436 C426,430.48 421.52,426 416,426 Z" id="Shape" fill="#0C3847"></path>
            <path d="M446,47.432 L446,30 C446,13.458 432.542,0 416,0 L96,0 C79.458,0 66,13.458 66,30 L66,47.432 C0.773,167.896 0.003,164.319 0,169.989 C0,169.993 0,169.996 0,170 L0,190 C0,207.333 10.022,223.453 26,232.62 L26,502 C26,507.522 30.478,512 36,512 L476,512 C481.522,512 486,507.522 486,502 L486,232.62 C501.817,223.461 512,207.151 512,190 L512,170 C512,169.996 512,169.993 512,169.989 C511.997,164.258 510.591,166.721 446,47.432 Z M81.912,60 L122.125,60 L88.792,160 L26.912,160 L81.912,60 Z M184.195,60 L167.528,160 L109.874,160 L143.207,60 L184.195,60 Z M307.529,60 L324.196,160 L266,160 L266,60 L307.529,60 Z M368.792,60 L402.125,160 L344.471,160 L327.805,60 L368.792,60 Z M246,160 L187.805,160 L204.472,60 L246,60 L246,160 Z M106,180 L166,180 L166,190 C166,206.542 152.542,220 136,220 C119.458,220 106,206.542 106,190 L106,180 Z M186,180 L246,180 L246,190 C246,206.542 232.542,220 216,220 C199.458,220 186,206.542 186,190 L186,180 Z M266,180 L326,180 L326,190 C326,206.542 312.542,220 296,220 C279.458,220 266,206.542 266,190 L266,180 Z M346,180 L406,180 L406,190 C406,206.542 392.542,220 376,220 C359.458,220 346,206.542 346,190 L346,180 Z M423.208,160 L389.875,60 L430.088,60 L485.088,160 L423.208,160 Z M86,30 C86,24.486 90.486,20 96,20 L416,20 C421.514,20 426,24.486 426,30 L426,40 C416.478,40 95.596,40 86,40 L86,30 Z M20,180 L86,180 L86,190 C86,205.701 70.271,220 53,220 C48.646,220 44.134,219.055 39.934,217.258 C28.011,212.187 20,201.232 20,190 L20,180 Z M206,386 L106,386 L106,300 L206,300 L206,386 Z M106,406 L206,406 L206,492 L106,492 L106,406 Z M226,492 L226,290 C226,284.478 221.522,280 216,280 L96,280 C90.478,280 86,284.478 86,290 L86,492 L46,492 L46,239.511 C48.318,239.826 50.653,240 53,240 C66.161,240 79.465,234.786 89.498,225.694 C91.717,223.684 93.715,221.534 95.508,219.281 C104.602,231.822 119.36,240 136,240 C152.339,240 166.87,232.122 176,219.965 C185.13,232.122 199.661,240 216,240 C232.339,240 246.87,232.122 256,219.965 C265.13,232.122 279.661,240 296,240 C312.339,240 326.87,232.122 336,219.965 C345.13,232.122 359.661,240 376,240 C392.64,240 407.398,231.822 416.492,219.281 C418.285,221.534 420.283,223.683 422.502,225.694 C432.535,234.786 445.839,240 459,240 C461.342,240 463.677,239.832 466,239.515 L466,492 L226,492 Z M492,190 C492,201.548 483.691,212.629 471.326,217.575 C467.282,219.185 463.136,220 459,220 C441.729,220 426,205.701 426,190 L426,180 L492,180 L492,190 Z" id="Shape" fill="#0C3847"></path>
            <path d="M436,386 L426,386 L426,290 C426,284.478 421.522,280 416,280 L296,280 C290.478,280 286,284.478 286,290 L286,386 L276,386 C270.478,386 266,390.478 266,396 C266,401.522 270.478,406 276,406 L436,406 C441.522,406 446,401.522 446,396 C446,390.478 441.522,386 436,386 Z M306,300 L406,300 L406,386 L306,386 L306,300 Z" id="Shape" fill="#0C3847"></path>
            <path d="M376,426 L296,426 C290.478,426 286,430.478 286,436 C286,441.522 290.478,446 296,446 L376,446 C381.522,446 386,441.522 386,436 C386,430.478 381.522,426 376,426 Z" id="Shape" fill="#0C3847"></path>
        </g>
    </g>
</svg>