<?xml version="1.0" encoding="UTF-8"?>
<svg width="518px" height="518px" viewBox="0 0 518 518" version="1.1" xmlns="http://www.w3.org/2000/svg" xmlns:xlink="http://www.w3.org/1999/xlink">
    <!-- Generator: Sketch 50.2 (55047) - http://www.bohemiancoding.com/sketch -->
    <title>Untitled</title>
    <desc>Created with Sketch.</desc>
    <defs></defs>
    <g id="Page-1" stroke="none" stroke-width="1" fill="none" fill-rule="evenodd">
        <g id="search" transform="translate(3.000000, 3.000000)" fill-rule="nonzero">
            <circle id="Oval" fill="#FFD768" cx="351.019" cy="160.98" r="152.722"></circle>
            <circle id="Oval" fill="#53B7E8" cx="351.019" cy="160.98" r="120.02"></circle>
            <path d="M182.651,377.405 L62.285,497.769 C49.75,510.304 36.15,502.384 22.883,489.117 C9.616,475.85 1.696,462.25 14.231,449.715 L134.595,329.351 L173.335,338.666 L182.651,377.405 Z" id="Shape" fill="#67C18C"></path>
            <path d="M194.008,366.598 L179.347,381.259 L131.292,333.204 L145.953,318.543 C158.488,306.008 179.414,306.602 192.682,319.869 C205.95,333.136 206.543,354.062 194.008,366.598 Z" id="Shape" fill="#53B7E8"></path>
            <path d="M351.021,0 C262.257,0 190.043,72.214 190.043,160.978 C190.043,249.742 262.257,321.956 351.021,321.956 C439.785,321.956 512,249.742 512,160.978 C512,72.214 439.785,0 351.021,0 Z M351.021,305.441 C271.364,305.441 206.559,240.636 206.559,160.979 C206.559,81.322 271.366,16.516 351.021,16.516 C430.676,16.516 495.483,81.321 495.483,160.978 C495.483,240.635 430.678,305.441 351.021,305.441 Z" id="Shape" stroke="#0C3847" stroke-width="6" fill="#0C3847"></path>
            <path d="M283.908,93.866 C280.683,97.091 280.684,102.32 283.908,105.544 C285.521,107.156 287.634,107.962 289.747,107.962 C291.86,107.962 293.974,107.156 295.587,105.543 C310.393,90.737 330.08,82.582 351.022,82.582 C371.963,82.582 391.649,90.736 406.456,105.543 C409.68,108.769 414.909,108.768 418.134,105.544 C421.359,102.319 421.359,97.09 418.134,93.866 C400.209,75.938 376.375,66.066 351.022,66.066 C325.669,66.066 301.834,75.939 283.908,93.866 Z" id="Shape" stroke="#0C3847" stroke-width="6" fill="#0C3847"></path>
            <path d="M221.703,278.617 L189.944,310.376 C173.539,299.418 151.096,301.169 136.626,315.638 L9.289,442.976 C-1.169,453.434 -0.927,464.12 1.118,471.243 C3.254,478.687 8.317,486.222 17.048,494.953 C25.78,503.684 33.313,508.745 40.758,510.883 C43.022,511.534 45.645,512.001 48.508,512.001 C54.65,512.001 61.891,509.846 69.025,502.712 L180.835,390.902 C180.838,390.899 180.842,390.895 180.846,390.892 C180.85,390.889 180.853,390.885 180.856,390.881 L196.363,375.374 C204.342,367.395 208.735,356.789 208.735,345.507 C208.735,337.029 206.254,328.933 201.635,322.046 L233.384,290.297 C236.609,287.071 236.609,281.843 233.384,278.618 C230.157,275.394 224.928,275.394 221.703,278.617 Z M57.346,491.031 C52.068,496.309 45.513,500.057 28.727,483.273 C11.943,466.49 15.691,459.933 20.969,454.656 L126.948,348.675 L163.325,385.052 L57.346,491.031 Z M184.682,363.694 L175.004,373.372 L138.627,336.996 L148.305,327.318 C158.334,317.289 174.653,317.289 184.683,327.318 C189.541,332.176 192.217,338.635 192.217,345.506 C192.216,352.377 189.541,358.836 184.682,363.694 Z" id="Shape" stroke="#0C3847" stroke-width="6" fill="#0C3847"></path>
            <path d="M471.042,169.317 C466.523,168.695 462.357,171.853 461.734,176.372 C454.172,231.312 406.576,272.741 351.022,272.741 C289.396,272.741 239.26,222.605 239.26,160.979 C239.26,99.353 289.395,49.216 351.021,49.216 C406.576,49.216 454.172,90.647 461.733,145.586 C462.355,150.105 466.525,153.269 471.041,152.641 C475.56,152.02 478.718,147.852 478.097,143.335 C473.91,112.915 458.838,84.946 435.657,64.58 C412.259,44.021 382.201,32.7 351.021,32.7 C280.288,32.7 222.742,90.246 222.742,160.979 C222.742,231.712 280.288,289.258 351.021,289.258 C382.201,289.258 412.257,277.937 435.656,257.379 C458.836,237.012 473.908,209.044 478.096,178.624 C478.718,174.104 475.56,169.938 471.042,169.317 Z" id="Shape" stroke="#0C3847" stroke-width="6" fill="#0C3847"></path>
        </g>
    </g>
</svg>