
<svg width="125px" height="133px" viewBox="0 0 125 133" version="1.1" xmlns="http://www.w3.org/2000/svg" xmlns:xlink="http://www.w3.org/1999/xlink">
    <!-- Generator: Sketch 49.3 (51167) - http://www.bohemiancoding.com/sketch -->
    <desc>Created with Sketch.</desc>
    <defs></defs>
    <g id="Welcome" stroke="none" stroke-width="1" fill="none" fill-rule="evenodd">
        <g id="Desktop-HD" transform="translate(-203.000000, -892.000000)" fill-rule="nonzero">
            <g id="bags" transform="translate(203.000000, 892.000000)">
                <rect id="Rectangle-path" fill="#FFD768" x="2.78207237" y="34.6837037" width="18.2927632" height="95.4644444"></rect>
                <rect id="Rectangle-path" fill="#53B7E8" x="21.0742873" y="34.6837037" width="18.2894737" height="95.4644444"></rect>
                <polygon id="Shape" fill="#67C18C" points="103.926809 34.6837037 85.6340461 34.6837037 39.3656798 34.6837037 39.3656798 130.148407 85.6340461 130.148407 103.926809 130.148407 122.217928 130.148407 122.217928 34.6837037"></polygon>
                <path d="M122.217928,32.0911111 L101.164474,32.0911111 L101.164474,19.7716296 C101.164748,8.86951852 91.7875548,0 80.2609649,0 C71.1036184,0 63.3086623,5.60077778 60.4890351,13.3687037 C56.6929825,8.36085185 50.4923246,5.08848148 43.4947917,5.08848148 C31.96875,5.08848148 22.591557,13.9577407 22.591557,24.8598519 L22.591557,32.0911111 L2.78207237,32.0911111 C1.26836623,32.0911111 0.0411184211,33.2520741 0.0411184211,34.6837037 L0.0411184211,130.148407 C0.0411184211,131.579778 1.26836623,132.741 2.78207237,132.741 L122.217928,132.741 C123.731908,132.741 124.958882,131.580037 124.958882,130.148407 L124.958882,34.6837037 C124.958607,33.2520741 123.731634,32.0911111 122.217928,32.0911111 Z M64.8399123,19.7716296 C64.8399123,11.7288889 71.7574013,5.18518519 80.2609649,5.18518519 C88.7645285,5.18518519 95.6822917,11.7286296 95.6822917,19.7716296 L95.6822917,32.0913704 L64.8399123,32.0913704 L64.8399123,19.7716296 Z M28.0734649,24.8601111 C28.0734649,16.8173704 34.9912281,10.2739259 43.4945175,10.2739259 C51.997807,10.2739259 58.9158443,16.8171111 58.9158443,24.8601111 L58.9158443,32.0913704 L28.0734649,32.0913704 L28.0734649,24.8601111 Z M5.52302632,37.2762963 L18.3336075,37.2762963 L18.3336075,127.555815 L5.52302632,127.555815 L5.52302632,37.2762963 Z M23.8157895,37.2762963 L36.6244518,37.2762963 L36.6244518,127.555815 L23.8157895,127.555815 L23.8157895,37.2762963 Z M119.476974,127.555815 L42.1066338,127.555815 L42.1066338,37.2762963 L59.3577303,37.2762963 L59.3577303,50.4998148 C59.3577303,51.9314444 60.5849781,53.0924074 62.0986842,53.0924074 C63.6123904,53.0924074 64.8399123,51.9314444 64.8399123,50.4998148 L64.8399123,37.2762963 L95.6822917,37.2762963 L95.6822917,51.1049259 C95.6822917,52.5368148 96.9095395,53.6975185 98.4232456,53.6975185 C99.9372259,53.6975185 101.164474,52.5368148 101.164474,51.1049259 L101.164474,37.2762963 L119.476974,37.2762963 L119.476974,127.555815 Z" id="Shape" fill="#0C3847"></path>
                <path d="M100.313322,77.5981111 L100.313322,103.524037 C100.313322,104.952556 101.544134,106.11663 103.05455,106.11663 C104.567708,106.11663 105.795504,104.952556 105.795504,103.524037 L105.795504,77.5981111 C105.795504,76.1695926 104.567708,75.0055185 103.05455,75.0055185 C101.54386,75.0055185 100.313322,76.1695926 100.313322,77.5981111 Z" id="Shape" fill="#0C3847"></path>
                <path d="M103.054002,111.301815 C101.543586,111.301815 100.312774,112.465889 100.312774,113.894407 C100.312774,115.322926 101.543586,116.487 103.054002,116.487 C104.56716,116.487 105.794956,115.322926 105.794956,113.894407 C105.794956,112.465889 104.56716,111.301815 103.054002,111.301815 Z" id="Shape" fill="#0C3847"></path>
            </g>
        </g>
    </g>
</svg>