
<svg width="133px" height="89px" viewBox="0 0 133 89" version="1.1" xmlns="http://www.w3.org/2000/svg" xmlns:xlink="http://www.w3.org/1999/xlink">
    <!-- Generator: Sketch 49.3 (51167) - http://www.bohemiancoding.com/sketch -->
    <desc>Created with Sketch.</desc>
    <defs></defs>
    <g id="Welcome" stroke="none" stroke-width="1" fill="none" fill-rule="evenodd">
        <g id="Desktop-HD" transform="translate(-1124.000000, -931.000000)" fill-rule="nonzero">
            <g id="delivery-truck" transform="translate(1124.000000, 931.000000)">
                <polygon id="Shape" fill="#53B7E8" points="3 52 83 52 83 74 3 74"></polygon>
                <polygon id="Shape" fill="#67C18C" points="3 3 83 3 83 53 3 53"></polygon>
                <polygon id="Shape" fill="#FDBD40" points="82 11 122.090909 11 131 28.7142857 131 73 82 73"></polygon>
                <g id="Group" transform="translate(9.000000, 9.000000)" fill="#F4F4E6">
                    <polygon id="Shape" points="110 29.0952381 81.4 29.0952381 81.4 11.1904762 105.6 11.1904762 110 20.1428571"></polygon>
                    <path d="M90.2,40.2857143 L81.4,40.2857143 C80.18505,40.2857143 79.2,39.2836071 79.2,38.047619 C79.2,36.811631 80.18505,35.8095238 81.4,35.8095238 L90.2,35.8095238 C91.41495,35.8095238 92.4,36.811631 92.4,38.047619 C92.4,39.2836071 91.41495,40.2857143 90.2,40.2857143 Z" id="Shape"></path>
                    <polygon id="Shape" points="112.2 38.047619 121 38.047619 121 47 112.2 47"></polygon>
                    <path d="M24.2,13.4285714 L2.2,13.4285714 C0.98505,13.4285714 0,12.4264643 0,11.1904762 C0,9.9544881 0.98505,8.95238095 2.2,8.95238095 L24.2,8.95238095 C25.41495,8.95238095 26.4,9.9544881 26.4,11.1904762 C26.4,12.4264643 25.41495,13.4285714 24.2,13.4285714 Z" id="Shape"></path>
                    <path d="M33,22.3809524 L11,22.3809524 C9.78505,22.3809524 8.8,21.3788452 8.8,20.1428571 C8.8,18.906869 9.78505,17.9047619 11,17.9047619 L33,17.9047619 C34.21495,17.9047619 35.2,18.906869 35.2,20.1428571 C35.2,21.3788452 34.21495,22.3809524 33,22.3809524 Z" id="Shape"></path>
                    <path d="M63.8,8.95238095 C62.58505,8.95238095 61.6,7.95027381 61.6,6.71428571 L61.6,2.23809524 C61.6,1.00210714 62.58505,0 63.8,0 C65.01495,0 66,1.00210714 66,2.23809524 L66,6.71428571 C66,7.95055357 65.01495,8.95238095 63.8,8.95238095 Z" id="Shape"></path>
                    <path d="M63.8,35.8095238 C62.58505,35.8095238 61.6,34.8074167 61.6,33.5714286 L61.6,15.6666667 C61.6,14.4306786 62.58505,13.4285714 63.8,13.4285714 C65.01495,13.4285714 66,14.4306786 66,15.6666667 L66,33.5714286 C66,34.8076964 65.01495,35.8095238 63.8,35.8095238 Z" id="Shape"></path>
                </g>
                <g id="Group" transform="translate(11.000000, 61.000000)" fill="#AABECE">
                    <ellipse id="Oval" cx="13.32" cy="13.5" rx="13.32" ry="13.5"></ellipse>
                    <ellipse id="Oval" cx="48.84" cy="13.5" rx="13.32" ry="13.5"></ellipse>
                    <ellipse id="Oval" cx="97.68" cy="13.5" rx="13.32" ry="13.5"></ellipse>
                </g>
                <g id="Group" transform="translate(18.000000, 67.000000)" fill="#7D8D9C">
                    <ellipse id="Oval" cx="6.61363636" cy="6.5" rx="6.61363636" ry="6.5"></ellipse>
                    <ellipse id="Oval" cx="41.8863636" cy="6.5" rx="6.61363636" ry="6.5"></ellipse>
                    <ellipse id="Oval" cx="90.3863636" cy="6.5" rx="6.61363636" ry="6.5"></ellipse>
                </g>
                <path d="M24.5,67 C20.9101042,67 18,69.9101042 18,73.5 C18,77.0898958 20.9101042,80 24.5,80 C28.0898958,80 31,77.0898958 31,73.5 C31,69.9101042 28.0898958,67 24.5,67 Z M24.5,75.6666667 C23.3034583,75.6666667 22.3333333,74.6965417 22.3333333,73.5 C22.3333333,72.3034583 23.3034583,71.3333333 24.5,71.3333333 C25.6965417,71.3333333 26.6666667,72.3034583 26.6666667,73.5 C26.6666667,74.6965417 25.6965417,75.6666667 24.5,75.6666667 Z" id="Shape" fill="#0C3847"></path>
                <path d="M59.5,67 C55.9101042,67 53,69.9101042 53,73.5 C53,77.0898958 55.9101042,80 59.5,80 C63.0898958,80 66,77.0898958 66,73.5 C66,69.9101042 63.0898958,67 59.5,67 Z M59.5,75.6666667 C58.3034583,75.6666667 57.3333333,74.6965417 57.3333333,73.5 C57.3333333,72.3034583 58.3034583,71.3333333 59.5,71.3333333 C60.6965417,71.3333333 61.6666667,72.3034583 61.6666667,73.5 C61.6666667,74.6965417 60.6965417,75.6666667 59.5,75.6666667 Z" id="Shape" fill="#0C3847"></path>
                <path d="M108.5,67 C104.910104,67 102,69.9101042 102,73.5 C102,77.0898958 104.910104,80 108.5,80 C112.089896,80 115,77.0898958 115,73.5 C115,69.9101042 112.089896,67 108.5,67 Z M108.5,75.6666667 C107.303458,75.6666667 106.333333,74.6965417 106.333333,73.5 C106.333333,72.3034583 107.303458,71.3333333 108.5,71.3333333 C109.696542,71.3333333 110.666667,72.3034583 110.666667,73.5 C110.666667,74.6965417 109.696542,75.6666667 108.5,75.6666667 Z" id="Shape" fill="#0C3847"></path>
                <path d="M123.911535,10.1309259 C123.534148,9.37299778 122.760809,8.89571169 121.916537,8.90044005 L84.2332437,8.90044005 L84.2332437,2.22511001 C84.2332437,0.996293008 83.2407323,0 82.0165794,0 L2.21666431,0 C0.992511444,0 0,0.996293008 0,2.22511001 L0,73.4286304 C0,74.6574474 0.992511444,75.6537404 2.21666431,75.6537404 L9.04399038,75.6537404 C10.260662,84.1575546 18.1145807,90.0613277 26.5863946,88.8400205 C33.3954332,87.8584688 38.7447984,82.4887221 39.7226244,75.6537404 L44.5106193,75.6537404 C45.7272909,84.1575546 53.5812097,90.0613277 62.0530236,88.8400205 C68.8620621,87.8584688 74.2114273,82.4887221 75.1892533,75.6537404 L93.2772341,75.6537404 C94.4939057,84.1575546 102.347824,90.0613277 110.819638,88.8400205 C117.628677,87.8584688 122.978042,82.4887221 123.955868,75.6537404 L130.783194,75.6537404 C132.007347,75.6537404 132.999858,74.6574474 132.999858,73.4286304 L132.999858,28.9264301 C133.003738,28.5820944 132.927817,28.2416525 132.778192,27.931806 L123.911535,10.1309259 Z M4.43332862,4.45022002 L79.7999151,4.45022002 L79.7999151,48.9524203 L4.43332862,48.9524203 L4.43332862,4.45022002 Z M4.43332862,53.4026403 L79.7999151,53.4026403 L79.7999151,71.2035204 L75.1892533,71.2035204 C73.9725817,62.6997062 66.118663,56.795933 57.6468491,58.0172403 C50.8378105,58.998792 45.4884453,64.3685387 44.5106193,71.2035204 L39.7226244,71.2035204 C38.5059528,62.6997062 30.6520341,56.795933 22.1802201,58.0172403 C15.3711816,58.998792 10.0218164,64.3685387 9.04399038,71.2035204 L4.43332862,71.2035204 L4.43332862,53.4026403 Z M24.3833074,84.5541804 C18.262266,84.5541804 13.2999858,79.5729935 13.2999858,73.4286304 C13.2999858,67.2842672 18.262266,62.3030803 24.3833074,62.3030803 C30.5043488,62.3030803 35.4666289,67.2842672 35.4666289,73.4286304 C35.4594248,79.5702121 30.5013009,84.5469488 24.3833074,84.5541804 Z M59.8499363,84.5541804 C53.7288949,84.5541804 48.7666148,79.5729935 48.7666148,73.4286304 C48.7666148,67.2842672 53.7288949,62.3030803 59.8499363,62.3030803 C65.9709777,62.3030803 70.9332579,67.2842672 70.9332579,73.4286304 C70.9260537,79.5702121 65.9679298,84.5469488 59.8499363,84.5541804 Z M108.616551,84.5541804 C102.49551,84.5541804 97.5332296,79.5729935 97.5332296,73.4286304 C97.5332296,67.2842672 102.49551,62.3030803 108.616551,62.3030803 C114.737592,62.3030803 119.699873,67.2842672 119.699873,73.4286304 C119.692668,79.5702121 114.734545,84.5469488 108.616551,84.5541804 Z M123.955868,71.2035204 C122.739196,62.6997062 114.885278,56.795933 106.413464,58.0172403 C99.6044253,58.998792 94.2550601,64.3685387 93.2772341,71.2035204 L84.2332437,71.2035204 L84.2332437,13.3506601 L120.546638,13.3506601 L128.56653,29.4515561 L128.56653,44.5022002 L121.916537,44.5022002 C120.692384,44.5022002 119.699873,45.4984932 119.699873,46.7273102 L119.699873,55.6277503 C119.699873,56.8565673 120.692384,57.8528603 121.916537,57.8528603 L128.56653,57.8528603 L128.56653,71.2035204 L123.955868,71.2035204 Z M128.56653,53.4026403 L124.133201,53.4026403 L124.133201,48.9524203 L128.56653,48.9524203 L128.56653,53.4026403 Z" id="Shape" fill="#0C3847"></path>
                <path d="M121.99986,37.8000034 L121.99986,29.0000172 C122.00371,28.6595677 121.92836,28.3229683 121.77986,28.0166187 L117.379879,19.2166325 C117.005331,18.4672587 116.237809,17.9953594 115.399888,18.0000344 L91.1999906,18.0000344 C89.9850458,18.0000344 89,18.9850829 89,20.200031 L89,37.8000034 C89,39.0149515 89.9850458,40 91.1999906,40 L119.799869,40 C121.014814,40 121.99986,39.0152265 121.99986,37.8000034 Z M117.599878,35.6000069 L93.3999813,35.6000069 L93.3999813,22.4000275 L114.040293,22.4000275 L117.599878,29.5192164 L117.599878,35.6000069 Z" id="Shape" fill="#0C3847"></path>
                <path d="M99.8333333,44 L91.1666667,44 C89.970125,44 89,44.8955 89,46 C89,47.1045 89.970125,48 91.1666667,48 L99.8333333,48 C101.029875,48 102,47.1045 102,46 C102,44.8955 101.029875,44 99.8333333,44 Z" id="Shape" fill="#0C3847"></path>
                <path d="M36,20 C36,18.8955 34.9925625,18 33.75,18 L11.25,18 C10.0074375,18 9,18.8955 9,20 C9,21.1045 10.0074375,22 11.25,22 L33.75,22 C34.9925625,22 36,21.10475 36,20 Z" id="Shape" fill="#0C3847"></path>
                <path d="M42.75,27 L20.25,27 C19.0074375,27 18,27.8955 18,29 C18,30.1045 19.0074375,31 20.25,31 L42.75,31 C43.9925625,31 45,30.1045 45,29 C45,27.8955 43.9925625,27 42.75,27 Z" id="Shape" fill="#0C3847"></path>
                <path d="M73,9 C71.8955,9 71,10.0074375 71,11.25 L71,15.75 C71,16.9925625 71.8955,18 73,18 C74.1045,18 75,16.9925625 75,15.75 L75,11.25 C75,10.0074375 74.1045,9 73,9 Z" id="Shape" fill="#0C3847"></path>
                <path d="M73,22 C71.8955,22 71,22.98505 71,24.2 L71,41.8 C71,43.01495 71.8955,44 73,44 C74.1045,44 75,43.01495 75,41.8 L75,24.2 C75,22.98505 74.1045,22 73,22 Z" id="Shape" fill="#0C3847"></path>
            </g>
        </g>
    </g>
</svg>